<?xml version="1.0" standalone="no"?>
<!DOCTYPE svg PUBLIC "-//W3C//DTD SVG 20010904//EN"
 "http://www.w3.org/TR/2001/REC-SVG-20010904/DTD/svg10.dtd">
<svg version="1.0" xmlns="http://www.w3.org/2000/svg"
 width="900.000000pt" height="537.000000pt" viewBox="0 0 900.000000 537.000000"
 preserveAspectRatio="xMidYMid meet">
<metadata>
Created by potrace 1.10, written by Peter Selinger 2001-2011
</metadata>
<g transform="translate(0.000000,537.000000) scale(0.100000,-0.100000)"
fill="#000000" stroke="none">
<path d="M5392 4368 c-9 -9 -12 -74 -12 -231 l0 -220 -76 -151 c-41 -83 -79
-158 -84 -166 -5 -8 -40 -67 -76 -130 -93 -160 -220 -350 -343 -515 -311 -415
-621 -735 -1117 -1151 -139 -116 -600 -448 -736 -529 -9 -5 -99 -60 -200 -121
-101 -61 -217 -130 -258 -153 -83 -45 -466 -236 -545 -270 -27 -13 -58 -27
-67 -32 -34 -18 -37 -9 -6 24 137 146 188 265 188 438 0 146 -28 235 -109 344
-64 86 -114 129 -209 176 -159 79 -354 83 -503 9 -108 -53 -114 -58 -183 -130
-185 -197 -212 -483 -67 -710 89 -139 248 -244 395 -261 39 -4 594 -8 1233 -9
l1161 0 54 42 c146 116 619 577 909 887 74 79 145 155 159 170 14 14 91 98
170 186 80 88 150 165 156 170 6 6 35 38 64 73 29 34 57 59 62 54 4 -4 9 -365
10 -802 l3 -795 1259 -3 c1183 -2 1330 1 1260 24 -145 47 -593 264 -813 393
-25 15 -53 30 -61 34 -18 9 -20 11 -185 110 -165 99 -158 95 -230 143 -33 22
-67 43 -75 47 -8 4 -55 36 -105 71 -49 36 -115 82 -145 102 -56 38 -301 222
-310 233 -3 4 -25 22 -50 41 -87 67 -336 283 -428 372 l-94 90 34 36 c18 20
38 41 44 47 6 5 53 60 105 120 51 61 99 115 105 120 6 6 53 59 105 120 117
137 127 148 179 210 24 28 67 77 95 110 29 33 110 128 180 210 69 83 136 161
148 175 13 14 112 132 220 263 109 130 201 237 205 237 4 0 28 19 53 43 70 63
201 170 284 231 22 17 42 33 45 37 5 7 111 80 198 137 28 19 52 41 52 48 0 19
-2029 21 -2048 2z"/>
</g>
</svg>
