<?xml version="1.0" encoding="utf-8"?>
<!-- Generator: Adobe Illustrator 27.0.0, SVG Export Plug-In . SVG Version: 6.00 Build 0)  -->
<svg version="1.1" id="Layer_1" xmlns="http://www.w3.org/2000/svg" xmlns:xlink="http://www.w3.org/1999/xlink" x="0px" y="0px"
	 viewBox="0 0 900 537" style="enable-background:new 0 0 900 537;" xml:space="preserve">
<style type="text/css">
	.st0{fill:#FFFFFF;}
</style>
<g transform="translate(0.000000,537.000000) scale(0.100000,-0.100000)">
	<path class="st0" d="M5392,4368c-9-9-12-74-12-231v-220l-76-151c-41-83-79-158-84-166s-40-67-76-130c-93-160-220-350-343-515
		c-311-415-621-735-1117-1151c-139-116-600-448-736-529c-9-5-99-60-200-121s-217-130-258-153c-83-45-466-236-545-270
		c-27-13-58-27-67-32c-34-18-37-9-6,24c137,146,188,265,188,438c0,146-28,235-109,344c-64,86-114,129-209,176c-159,79-354,83-503,9
		c-108-53-114-58-183-130c-185-197-212-483-67-710c89-139,248-244,395-261c39-4,594-8,1233-9h1161l54,42c146,116,619,577,909,887
		c74,79,145,155,159,170c14,14,91,98,170,186c80,88,150,165,156,170c6,6,35,38,64,73c29,34,57,59,62,54c4-4,9-365,10-802l3-795
		l1259-3c1183-2,1330,1,1260,24c-145,47-593,264-813,393c-25,15-53,30-61,34c-18,9-20,11-185,110s-158,95-230,143
		c-33,22-67,43-75,47s-55,36-105,71c-49,36-115,82-145,102c-56,38-301,222-310,233c-3,4-25,22-50,41c-87,67-336,283-428,372l-94,90
		l34,36c18,20,38,41,44,47c6,5,53,60,105,120c51,61,99,115,105,120c6,6,53,59,105,120c117,137,127,148,179,210c24,28,67,77,95,110
		c29,33,110,128,180,210c69,83,136,161,148,175c13,14,112,132,220,263c109,130,201,237,205,237s28,19,53,43c70,63,201,170,284,231
		c22,17,42,33,45,37c5,7,111,80,198,137c28,19,52,41,52,48C7440,4385,5411,4387,5392,4368z"/>
</g>
</svg>
